<?xml version="1.0" encoding="UTF-8" standalone="no"?>
<!DOCTYPE svg PUBLIC "-//W3C//DTD SVG 1.1//EN"
 "http://www.w3.org/Graphics/SVG/1.1/DTD/svg11.dtd">
<!-- Generated by graphviz version 2.42.4 (0)
 -->
<!-- Title: G Pages: 1 -->
<svg width="256pt" height="534pt"
 viewBox="0.00 0.00 256.32 534.32" xmlns="http://www.w3.org/2000/svg" xmlns:xlink="http://www.w3.org/1999/xlink">
<g id="graph0" class="graph" transform="scale(1 1) rotate(0) translate(20.16 514.16)">
<title>G</title>
<polygon fill="white" stroke="transparent" points="-20.16,20.16 -20.16,-514.16 236.16,-514.16 236.16,20.16 -20.16,20.16"/>
<!-- author -->
<g id="node1" class="node">
<title>author</title>
<path fill="#f7faff" stroke="#8aa4c8" d="M200.5,-494C200.5,-494 15.5,-494 15.5,-494 9.5,-494 3.5,-488 3.5,-482 3.5,-482 3.5,-468 3.5,-468 3.5,-462 9.5,-456 15.5,-456 15.5,-456 200.5,-456 200.5,-456 206.5,-456 212.5,-462 212.5,-468 212.5,-468 212.5,-482 212.5,-482 212.5,-488 206.5,-494 200.5,-494"/>
<text text-anchor="middle" x="108" y="-478.2" font-family="Noto Sans CJK JP" font-size="11.00">資料作成</text>
<text text-anchor="middle" x="108" y="-466.2" font-family="Noto Sans CJK JP" font-size="11.00">明確な見出し / 主語 / 単位 / 用語定義</text>
</g>
<!-- struct -->
<g id="node2" class="node">
<title>struct</title>
<path fill="#f7faff" stroke="#8aa4c8" d="M184,-424C184,-424 32,-424 32,-424 26,-424 20,-418 20,-412 20,-412 20,-386 20,-386 20,-380 26,-374 32,-374 32,-374 184,-374 184,-374 190,-374 196,-380 196,-386 196,-386 196,-412 196,-412 196,-418 190,-424 184,-424"/>
<text text-anchor="middle" x="108" y="-408.2" font-family="Noto Sans CJK JP" font-size="11.00">構造化</text>
<text text-anchor="middle" x="108" y="-396.2" font-family="Noto Sans CJK JP" font-size="11.00">1セクション1トピック</text>
<text text-anchor="middle" x="108" y="-384.2" font-family="Noto Sans CJK JP" font-size="11.00">表・画像にcaptionと元データ</text>
</g>
<!-- author&#45;&gt;struct -->
<g id="edge1" class="edge">
<title>author&#45;&gt;struct</title>
<path fill="none" stroke="#607d8b" stroke-width="1.4" d="M108,-455.71C108,-449.25 108,-441.76 108,-434.41"/>
<polygon fill="#607d8b" stroke="#607d8b" stroke-width="1.4" points="111.5,-434.23 108,-424.23 104.5,-434.23 111.5,-434.23"/>
</g>
<!-- lifecycle -->
<g id="node3" class="node">
<title>lifecycle</title>
<path fill="#f7faff" stroke="#8aa4c8" d="M178,-342C178,-342 38,-342 38,-342 32,-342 26,-336 26,-330 26,-330 26,-304 26,-304 26,-298 32,-292 38,-292 38,-292 178,-292 178,-292 184,-292 190,-298 190,-304 190,-304 190,-330 190,-330 190,-336 184,-342 178,-342"/>
<text text-anchor="middle" x="108" y="-326.2" font-family="Noto Sans CJK JP" font-size="11.00">版管理</text>
<text text-anchor="middle" x="108" y="-314.2" font-family="Noto Sans CJK JP" font-size="11.00">document_id固定</text>
<text text-anchor="middle" x="108" y="-302.2" font-family="Noto Sans CJK JP" font-size="11.00">Draft / Approved / Obsolete</text>
</g>
<!-- struct&#45;&gt;lifecycle -->
<g id="edge2" class="edge">
<title>struct&#45;&gt;lifecycle</title>
<path fill="none" stroke="#607d8b" stroke-width="1.4" d="M108,-374C108,-367.18 108,-359.62 108,-352.31"/>
<polygon fill="#607d8b" stroke="#607d8b" stroke-width="1.4" points="111.5,-352.26 108,-342.26 104.5,-352.26 111.5,-352.26"/>
</g>
<!-- meta -->
<g id="node4" class="node">
<title>meta</title>
<path fill="#f7faff" stroke="#8aa4c8" d="M196.5,-260C196.5,-260 19.5,-260 19.5,-260 13.5,-260 7.5,-254 7.5,-248 7.5,-248 7.5,-234 7.5,-234 7.5,-228 13.5,-222 19.5,-222 19.5,-222 196.5,-222 196.5,-222 202.5,-222 208.5,-228 208.5,-234 208.5,-234 208.5,-248 208.5,-248 208.5,-254 202.5,-260 196.5,-260"/>
<text text-anchor="middle" x="108" y="-244.2" font-family="Noto Sans CJK JP" font-size="11.00">Metadata</text>
<text text-anchor="middle" x="108" y="-232.2" font-family="Noto Sans CJK JP" font-size="11.00">project / type / version / date / ACL</text>
</g>
<!-- lifecycle&#45;&gt;meta -->
<g id="edge3" class="edge">
<title>lifecycle&#45;&gt;meta</title>
<path fill="none" stroke="#607d8b" stroke-width="1.4" d="M108,-291.77C108,-285.02 108,-277.62 108,-270.65"/>
<polygon fill="#607d8b" stroke="#607d8b" stroke-width="1.4" points="111.5,-270.18 108,-260.18 104.5,-270.18 111.5,-270.18"/>
</g>
<!-- ingest -->
<g id="node5" class="node">
<title>ingest</title>
<path fill="#f7faff" stroke="#8aa4c8" d="M169.5,-190C169.5,-190 46.5,-190 46.5,-190 40.5,-190 34.5,-184 34.5,-178 34.5,-178 34.5,-152 34.5,-152 34.5,-146 40.5,-140 46.5,-140 46.5,-140 169.5,-140 169.5,-140 175.5,-140 181.5,-146 181.5,-152 181.5,-152 181.5,-178 181.5,-178 181.5,-184 175.5,-190 169.5,-190"/>
<text text-anchor="middle" x="108" y="-174.2" font-family="Noto Sans CJK JP" font-size="11.00">Ingestion</text>
<text text-anchor="middle" x="108" y="-162.2" font-family="Noto Sans CJK JP" font-size="11.00">section&#45;aware chunking</text>
<text text-anchor="middle" x="108" y="-150.2" font-family="Noto Sans CJK JP" font-size="11.00">metadata enrichment</text>
</g>
<!-- meta&#45;&gt;ingest -->
<g id="edge4" class="edge">
<title>meta&#45;&gt;ingest</title>
<path fill="none" stroke="#607d8b" stroke-width="1.4" d="M108,-221.71C108,-215.25 108,-207.76 108,-200.41"/>
<polygon fill="#607d8b" stroke="#607d8b" stroke-width="1.4" points="111.5,-200.23 108,-190.23 104.5,-200.23 111.5,-200.23"/>
</g>
<!-- index -->
<g id="node6" class="node">
<title>index</title>
<path fill="#f7faff" stroke="#8aa4c8" d="M169.5,-108C169.5,-108 46.5,-108 46.5,-108 40.5,-108 34.5,-102 34.5,-96 34.5,-96 34.5,-82 34.5,-82 34.5,-76 40.5,-70 46.5,-70 46.5,-70 169.5,-70 169.5,-70 175.5,-70 181.5,-76 181.5,-82 181.5,-82 181.5,-96 181.5,-96 181.5,-102 175.5,-108 169.5,-108"/>
<text text-anchor="middle" x="108" y="-92.2" font-family="Noto Sans CJK JP" font-size="11.00">Hybrid Index</text>
<text text-anchor="middle" x="108" y="-80.2" font-family="Noto Sans CJK JP" font-size="11.00">keyword + vector + filter</text>
</g>
<!-- ingest&#45;&gt;index -->
<g id="edge5" class="edge">
<title>ingest&#45;&gt;index</title>
<path fill="none" stroke="#607d8b" stroke-width="1.4" d="M108,-139.77C108,-133.02 108,-125.62 108,-118.65"/>
<polygon fill="#607d8b" stroke="#607d8b" stroke-width="1.4" points="111.5,-118.18 108,-108.18 104.5,-118.18 111.5,-118.18"/>
</g>
<!-- answer -->
<g id="node7" class="node">
<title>answer</title>
<path fill="#f4fff7" stroke="#78b58b" d="M204,-38C204,-38 12,-38 12,-38 6,-38 0,-32 0,-26 0,-26 0,-12 0,-12 0,-6 6,0 12,0 12,0 204,0 204,0 210,0 216,-6 216,-12 216,-12 216,-26 216,-26 216,-32 210,-38 204,-38"/>
<text text-anchor="middle" x="108" y="-22.2" font-family="Noto Sans CJK JP" font-size="11.00">RAG</text>
<text text-anchor="middle" x="108" y="-10.2" font-family="Noto Sans CJK JP" font-size="11.00">最新・正規・権限内の資料だけで回答</text>
</g>
<!-- index&#45;&gt;answer -->
<g id="edge6" class="edge">
<title>index&#45;&gt;answer</title>
<path fill="none" stroke="#607d8b" stroke-width="1.4" d="M108,-69.78C108,-63.22 108,-55.66 108,-48.44"/>
<polygon fill="#607d8b" stroke="#607d8b" stroke-width="1.4" points="111.5,-48.27 108,-38.27 104.5,-48.27 111.5,-48.27"/>
</g>
</g>
</svg>
